<svg width="136" height="136" viewBox="0 0 136 136" fill="none" xmlns="http://www.w3.org/2000/svg">
<path d="M8 68C8 34.8629 34.8629 8 68 8V8C101.137 8 128 34.8629 128 68V68C128 101.137 101.137 128 68 128V128C34.8629 128 8 101.137 8 68V68Z" fill="#1D9BF0"/>
<path d="M57.02 99.6501C83.63 99.6501 98.18 77.6001 98.18 58.4901C98.18 57.8601 98.18 57.2301 98.15 56.6301C100.97 54.5901 103.43 52.0401 105.38 49.1301C102.8 50.2701 100.01 51.0501 97.07 51.4101C100.07 49.6101 102.35 46.7901 103.43 43.4001C100.64 45.0501 97.55 46.2501 94.25 46.9101C91.61 44.0901 87.86 42.3501 83.69 42.3501C75.71 42.3501 69.23 48.8301 69.23 56.8101C69.23 57.9501 69.35 59.0601 69.62 60.1101C57.59 59.5101 46.94 53.7501 39.8 44.9901C38.57 47.1201 37.85 49.6101 37.85 52.2501C37.85 57.2601 40.4 61.7001 44.3 64.2801C41.93 64.2201 39.71 63.5601 37.76 62.4801C37.76 62.5401 37.76 62.6001 37.76 62.6601C37.76 69.6801 42.74 75.5001 49.37 76.8501C48.17 77.1801 46.88 77.3601 45.56 77.3601C44.63 77.3601 43.73 77.2701 42.83 77.0901C44.66 82.8501 50 87.0201 56.33 87.1401C51.38 91.0101 45.14 93.3201 38.36 93.3201C37.19 93.3201 36.05 93.2601 34.91 93.1101C41.24 97.2501 48.86 99.6501 57.02 99.6501Z" fill="white"/>
<path d="M68 120C39.2812 120 16 96.7188 16 68H0C0 105.555 30.4446 136 68 136V120ZM120 68C120 96.7188 96.7188 120 68 120V136C105.555 136 136 105.555 136 68H120ZM68 16C96.7188 16 120 39.2812 120 68H136C136 30.4446 105.555 0 68 0V16ZM68 0C30.4446 0 0 30.4446 0 68H16C16 39.2812 39.2812 16 68 16V0Z" fill="black"/>
</svg>
