<svg width="136" height="136" viewBox="0 0 136 136" fill="none" xmlns="http://www.w3.org/2000/svg">
<path d="M8 68C8 34.8629 34.8629 8 68 8V8C101.137 8 128 34.8629 128 68V68C128 101.137 101.137 128 68 128V128C34.8629 128 8 101.137 8 68V68Z" fill="url(#paint0_linear_18_883)"/>
<path d="M31.605 102.907L36.7496 84.2255C33.569 78.742 31.9005 72.532 31.9178 66.1836C31.9178 46.2909 48.1861 30.1172 68.1565 30.1172C77.8549 30.1172 86.9623 33.8709 93.7929 40.6863C100.641 47.5017 104.412 56.5659 104.395 66.2009C104.395 86.0937 88.1268 102.267 68.1391 102.267H68.1217C62.0559 102.267 56.0943 100.745 50.7932 97.8736L31.605 102.907ZM51.7144 91.3523L52.8094 92.0096C57.4326 94.7427 62.7337 96.1784 68.1391 96.1957H68.1565C84.755 96.1957 98.2771 82.7551 98.2771 66.2182C98.2771 58.2092 95.1486 50.6846 89.4651 45.0108C83.7817 39.337 76.2037 36.2234 68.1565 36.2234C51.558 36.2061 38.0358 49.6467 38.0358 66.1836C38.0358 71.8401 39.6175 77.3581 42.6417 82.1324L43.3543 83.2741L40.3127 94.3275L51.7144 91.3523Z" fill="white"/>
<path d="M32.8738 101.645L37.8446 83.6027C34.7683 78.3268 33.1519 72.3244 33.1519 66.2008C33.1693 47 48.864 31.3799 68.1565 31.3799C77.5246 31.3799 86.3019 35.0125 92.9065 41.5857C99.5111 48.159 103.144 56.9118 103.144 66.2181C103.144 85.419 87.4316 101.039 68.1565 101.039H68.1391C62.2818 101.039 56.5288 99.5688 51.4189 96.8011L32.8738 101.645Z" fill="url(#paint1_linear_18_883)"/>
<path d="M31.605 102.907L36.7496 84.2255C33.569 78.742 31.9005 72.532 31.9178 66.1836C31.9178 46.2909 48.1861 30.1172 68.1565 30.1172C77.8549 30.1172 86.9623 33.8709 93.7929 40.6863C100.641 47.5017 104.412 56.5659 104.395 66.2009C104.395 86.0937 88.1268 102.267 68.1391 102.267H68.1217C62.0559 102.267 56.0943 100.745 50.7932 97.8736L31.605 102.907ZM51.7144 91.3523L52.8094 92.0096C57.4326 94.7427 62.7337 96.1784 68.1391 96.1957H68.1565C84.755 96.1957 98.2771 82.7551 98.2771 66.2182C98.2771 58.2092 95.1486 50.6846 89.4651 45.0108C83.7817 39.337 76.2037 36.2234 68.1565 36.2234C51.558 36.2061 38.0358 49.6467 38.0358 66.1836C38.0358 71.8401 39.6175 77.3581 42.6417 82.1324L43.3543 83.2741L40.3127 94.3275L51.7144 91.3523Z" fill="url(#paint2_linear_18_883)"/>
<path fill-rule="evenodd" clip-rule="evenodd" d="M59.1009 51.0998C58.4231 49.5948 57.7105 49.5602 57.0674 49.5429C56.5459 49.5256 55.9376 49.5256 55.3293 49.5256C54.721 49.5256 53.7477 49.7505 52.9134 50.65C52.0791 51.5495 49.7501 53.7291 49.7501 58.1747C49.7501 62.603 53.0003 66.8929 53.4522 67.4983C53.9041 68.1037 59.7266 77.4966 68.921 81.1119C76.5684 84.1217 78.1327 83.5163 79.7839 83.3606C81.435 83.2049 85.1371 81.1811 85.9018 79.0707C86.6492 76.9603 86.6492 75.1613 86.4233 74.7808C86.1973 74.4002 85.589 74.1753 84.6852 73.7256C83.7814 73.2758 79.332 71.0963 78.4977 70.7849C77.6634 70.4909 77.0551 70.3352 76.4642 71.2347C75.8558 72.1342 74.1178 74.158 73.5964 74.7635C73.0749 75.3689 72.5361 75.4381 71.6323 74.9884C70.7285 74.5386 67.8086 73.5872 64.3499 70.5082C61.6559 68.121 59.8309 65.1631 59.3095 64.2636C58.788 63.3641 59.2573 62.8797 59.7092 62.43C60.109 62.0321 60.613 61.3748 61.0649 60.8559C61.5168 60.3369 61.6732 59.9564 61.9687 59.3509C62.2642 58.7455 62.1251 58.2265 61.8992 57.7768C61.6732 57.3443 59.9004 52.8815 59.1009 51.0998Z" fill="white"/>
<path d="M68 120C39.2812 120 16 96.7188 16 68H0C0 105.555 30.4446 136 68 136V120ZM120 68C120 96.7188 96.7188 120 68 120V136C105.555 136 136 105.555 136 68H120ZM68 16C96.7188 16 120 39.2812 120 68H136C136 30.4446 105.555 0 68 0V16ZM68 0C30.4446 0 0 30.4446 0 68H16C16 39.2812 39.2812 16 68 16V0Z" fill="black"/>
<defs>
<linearGradient id="paint0_linear_18_883" x1="67.9969" y1="127.994" x2="67.9969" y2="7.9958" gradientUnits="userSpaceOnUse">
<stop stop-color="#20B038"/>
<stop offset="1" stop-color="#60D66A"/>
</linearGradient>
<linearGradient id="paint1_linear_18_883" x1="68.0069" y1="101.641" x2="68.0069" y2="31.3774" gradientUnits="userSpaceOnUse">
<stop stop-color="#20B038"/>
<stop offset="1" stop-color="#60D66A"/>
</linearGradient>
<linearGradient id="paint2_linear_18_883" x1="68.0071" y1="102.9" x2="68.0071" y2="30.1172" gradientUnits="userSpaceOnUse">
<stop stop-color="#F9F9F9"/>
<stop offset="1" stop-color="white"/>
</linearGradient>
</defs>
</svg>
